<svg id="Capa_1" data-name="Capa 1" xmlns="http://www.w3.org/2000/svg" xmlns:xlink="http://www.w3.org/1999/xlink" viewBox="0 0 512.38 341.19"><defs><style>.cls-1{fill:url(#linear-gradient);}.cls-2{fill:#fff;}</style><linearGradient id="linear-gradient" x1="255.81" y1="426.19" x2="255.81" y2="85" gradientTransform="matrix(1, 0, 0, -1, 0.38, 426.19)" gradientUnits="userSpaceOnUse"><stop offset="0" stop-color="#000307"/><stop offset="0.5" stop-color="#010b20"/><stop offset="0.56" stop-color="#010e25"/><stop offset="0.63" stop-color="#011735"/><stop offset="0.71" stop-color="#00264f"/><stop offset="0.75" stop-color="#003262"/><stop offset="0.9" stop-color="#00639d"/><stop offset="0.9" stop-color="#00649e"/><stop offset="0.94" stop-color="#02659f"/><stop offset="0.96" stop-color="#0969a2"/><stop offset="0.97" stop-color="#146fa8"/><stop offset="0.98" stop-color="#2578b0"/><stop offset="0.98" stop-color="#3b85ba"/><stop offset="0.99" stop-color="#5693c7"/><stop offset="0.99" stop-color="#73a3d5"/></linearGradient></defs><title>championsleague</title><rect class="cls-1" width="512.38" height="341.19"/><g id="g3122"><g id="g3058"><path id="path6" class="cls-2" d="M259.45,195.41a248.76,248.76,0,0,0,25.63,5.81,207,207,0,0,1-16.74-18.79c8.54-12,15.38-20.5,15.38-20.5-8.88,2.05-17.77,4.44-25.29,6.83C251.25,158.16,247.15,151,247.15,151a112.33,112.33,0,0,0-3.42,23.24c-12.3,4.78-19.82,8.54-19.82,8.54a205.27,205.27,0,0,0,20.16,7.86,112,112,0,0,0,4.1,23.92,155.81,155.81,0,0,1,11.28-19.14" transform="translate(0.38 -85.7)"/><path id="path8" class="cls-2" d="M326.76,191.65a18.64,18.64,0,0,1-8.54,6.83,137.34,137.34,0,0,0-2.05-18.79,167.08,167.08,0,0,1-9.57,21.87,86.21,86.21,0,0,1-21.53-.34,105.93,105.93,0,0,0,14,14,108.39,108.39,0,0,1-9.57,14A51.15,51.15,0,0,0,308,221a16.64,16.64,0,0,1,5.47,5.47s3.08-4.44,4.1-14.69a45.65,45.65,0,0,0,9.23-20.16" transform="translate(0.38 -85.7)"/><path id="path10" class="cls-2" d="M323,164a50.63,50.63,0,0,0-13.67-18.11c-4.44-9.57-9.91-14-9.91-14a17.16,17.16,0,0,1-.68,7.18,63.72,63.72,0,0,0-21.87-6.49,110.54,110.54,0,0,1,17.77,15.38,106.21,106.21,0,0,1-10.93,14c8.2-1.71,14.69-2.73,19.82-2.73a111.22,111.22,0,0,1,12.3,20.5,112.72,112.72,0,0,0-1.71-19.82C321,161.24,323,164,323,164" transform="translate(0.38 -85.7)"/><path id="path12" class="cls-2" d="M276.88,132.53a92.71,92.71,0,0,0-15.72-6.15,30.57,30.57,0,0,1,12.3-6.83,65.82,65.82,0,0,0-26,4.1c-10.93-1-17.77,1-17.77,1a17.87,17.87,0,0,1,4.44,6.15,56.8,56.8,0,0,0-14,13,103.34,103.34,0,0,1,17.09-6.49c.68,1,1.37,2.39,2.05,3.42a70.17,70.17,0,0,0,8.2,10.25,43.71,43.71,0,0,1,7.18-17.09c12.3-1.37,22.21-1.37,22.21-1.37" transform="translate(0.38 -85.7)"/><path id="path14" class="cls-2" d="M206.83,154.74a108.2,108.2,0,0,1,12.64-10.59,39.46,39.46,0,0,0-9.57,1.37,63.35,63.35,0,0,1,6.83-12.3s-20.84,15-24.94,41.69c0,0,1.71-4.78,7.86-12.3a35,35,0,0,0,5.13,8.54,76.73,76.73,0,0,1,2.05-16.4" transform="translate(0.38 -85.7)"/><path id="path16" class="cls-2" d="M223.91,182.76a166.32,166.32,0,0,0-17.43,1.71,86.11,86.11,0,0,1-1.37-13.33,65.11,65.11,0,0,0-7.52,15.72c-5.13,2.05-6.49,3.76-6.49,3.76a20.24,20.24,0,0,0,4.44,7.86c-.68,11.62,3.08,19.48,3.08,19.48a32.59,32.59,0,0,1,4.78-12,71.71,71.71,0,0,0,12.3,8.2,70.94,70.94,0,0,1-6.49-16.74,101.1,101.1,0,0,1,14.69-14.69" transform="translate(0.38 -85.7)"/><path id="path18" class="cls-2" d="M259.79,242.56A107.73,107.73,0,0,1,245.1,235a155.42,155.42,0,0,1,2.73-20.5,91,91,0,0,1-16.06,12.3c-5.13-3.76-10.59-7.86-16.06-12.64a128.83,128.83,0,0,0,7.52,16.74c-4.78,1.71-9.57,2.73-14,1.37,0,0,5.13,6.49,21.53,9.57,4.44,5.47,9.91,9.91,16.4,11.28,0,0-2.05-2.05-2.39-10.25a114,114,0,0,0,15-.34" transform="translate(0.38 -85.7)"/><path id="path20" class="cls-2" d="M289.18,241.88a36.13,36.13,0,0,0,.34-12.3,87.11,87.11,0,0,1-12,14,84.35,84.35,0,0,1-18.11-.68,46.93,46.93,0,0,0,9.57,7.18c-6.83,4.1-11.62,4.78-11.62,4.78a67.1,67.1,0,0,0,48.18-19.14,54.64,54.64,0,0,1-16.4,6.15" transform="translate(0.38 -85.7)"/><path id="path22" class="cls-2" d="M226.65,318.76a41.87,41.87,0,0,1,31.09-14.35,41.08,41.08,0,0,1,31.78,15l2.05-2.05a44.16,44.16,0,0,0-67-.68l2.05,2.05" transform="translate(0.38 -85.7)"/><path id="path32" class="cls-2" d="M309.68,295.87a70.67,70.67,0,0,0-103.19.34l-2.05-2.39a74.32,74.32,0,0,1,107.64-.34l-2.39,2.39" transform="translate(0.38 -85.7)"/><path id="path34" class="cls-2" d="M324,356c-8.88,0-14.35-7.52-14.35-15.72a14.38,14.38,0,0,1,14.69-14.69c9.23,0,14.69,7.18,14.69,15.38,0,9.23-6.83,15-15,15m-.34-26.31c-5.47,0-7.18,5.47-7.18,8.88,0,5.13,2.39,13,8.88,13,4.44,0,7.18-4.1,7.18-8.88,0-5.47-2.05-13-8.88-13Z" transform="translate(0.38 -85.7)"/><path id="path36" class="cls-2" d="M269,351.56c0,1.71.34,2.05,3.08,2.73v1c-2.73,0-4.44-.34-6.15-.34a31.27,31.27,0,0,0-5.47.34v-1c1.71-.34,2.05-1,2.05-3.08V329c0-1.37-.68-1.71-2.05-2.05v-1.37H273.8c8.2,0,11.28,4.1,11.28,9.23,0,5.47-4.1,8.88-9.91,8.88-2.05,0-5.47-1-5.47-2.05,0-.34.34-.34.68-.34h1.71c4.78,0,6.49-2.73,6.49-6.49,0-4.1-2.39-5.47-6.49-5.47l-2.73.34L269,351.56" transform="translate(0.38 -85.7)"/><path id="path38" class="cls-2" d="M294,328.67c0-1.37-.68-1.71-2.05-2.05v-1c2.05,0,3.76.34,5.47.34a31.27,31.27,0,0,0,5.47-.34v1a1.81,1.81,0,0,0-2.05,2.05v23.58c0,1.37.68,1.71,2.05,2.05v1c-2.05,0-3.76-.34-5.47-.34a31.27,31.27,0,0,0-5.47.34v-1a1.81,1.81,0,0,0,2.05-2.05V328.67" transform="translate(0.38 -85.7)"/><path id="path40" class="cls-2" d="M348.29,328.67c0-1.37-.68-1.71-2.05-2.05v-1c2.05,0,3.76.34,5.47.34a16.64,16.64,0,0,0,4.1-.34l12.3,20.16h0v-16.4c0-2.39-1.37-2.39-2.73-2.39v-1c1.37,0,3.08.34,4.44.34a19.48,19.48,0,0,0,4.44-.34v1a1.81,1.81,0,0,0-2.05,2.05v26.65h-4.78l-15-23.24h0V351.9c0,2.39,1.37,2.39,2.73,2.39v1c-1.37,0-3.08-.34-4.44-.34a19.48,19.48,0,0,0-4.44.34v-1a1.81,1.81,0,0,0,2.05-2.05V328.67" transform="translate(0.38 -85.7)"/><path id="path42" class="cls-2" d="M383.14,345.07c1,5.13,4.1,7.52,9.23,7.52,2.73,0,6.83-.68,6.83-4.1,0-2.73-2.73-3.42-5.13-4.1l-3.42-1c-4.78-1.37-9.57-3.42-9.57-8.88,0-7.18,6.83-9.23,14-9.23a23.59,23.59,0,0,1,8.54,1.37c0,3.42.34,6.15.34,8.54h-1c-1-4.1-4.44-6.15-8.54-6.15-2.39,0-6.15.68-6.15,4.1,0,2.39,2.39,3.42,4.1,3.76l4.78,1.37c4.78,1.37,9.23,3.08,9.23,9.23s-6.15,9.23-13.67,9.23A31.75,31.75,0,0,1,382.8,355a80.38,80.38,0,0,0-.34-9.57l.68-.34" transform="translate(0.38 -85.7)"/><path id="path44" class="cls-2" d="M148.74,328.67c0-1.37-.68-1.71-2.05-2.05v-1c2.05,0,3.76.34,5.47.34a31.27,31.27,0,0,0,5.47-.34v1a1.81,1.81,0,0,0-2.05,2.05v8.88h10.93v-8.88c0-1.37-.68-1.71-2.05-2.05v-1c2.05,0,3.76.34,5.47.34a31.27,31.27,0,0,0,5.47-.34v1a1.81,1.81,0,0,0-2.05,2.05v23.58c0,1.37.68,1.71,2.05,2.05v1c-2.05,0-3.76-.34-5.47-.34a31.27,31.27,0,0,0-5.47.34v-1a1.81,1.81,0,0,0,2.05-2.05V342H155.57v10.25c0,1.37.68,1.71,2.05,2.05v1c-2.05,0-3.76-.34-5.47-.34a31.27,31.27,0,0,0-5.47.34v-1c1.71,0,2.05-.68,2.05-2.05V328.67" transform="translate(0.38 -85.7)"/><path id="path46" class="cls-2" d="M191.79,342.68c1-3.08,2.73-6.83,3.76-10.25h0a84.15,84.15,0,0,0,2.73,10.25h-6.49m-10.93,12.64c1.71,0,3.08-.34,4.78-.34a24.21,24.21,0,0,1,4.78.34v-1c-1.37,0-2.05-.68-2.05-1.37a3.72,3.72,0,0,1,.34-1.71l2.05-5.47h8.88L201,350.2a5.82,5.82,0,0,1,.34,2.39c0,1-.68,1.37-2.39,1.71v1c2.05,0,3.76-.34,5.81-.34a33.15,33.15,0,0,1,5.81.34v-1c-1.37-.34-2.05-1-2.73-3.08l-8.2-25.63c-1.37,0-2.73.34-4.1.34a16.64,16.64,0,0,1-4.1-.34v1c1.37,0,1.71.68,1.71,1a5.77,5.77,0,0,1-.68,1.71l-8.88,22.55A2.56,2.56,0,0,1,181.2,354l-.34,1.37Z" transform="translate(0.38 -85.7)"/><path id="path48" class="cls-2" d="M219.47,333.11v-4.44c0-1.37-.34-1.71-2.05-1.71v-1c1.37,0,3.08.34,4.44.34a22.56,22.56,0,0,0,4.78-.34l7.86,20.84,7.18-20.84c1.71,0,3.08.34,4.78.34a22.56,22.56,0,0,0,4.78-.34v1c-1.71,0-1.71.68-1.71,1.71,0,1.37.34,3.42.34,4.78l1.37,19.14c0,1,1.37,1.37,2.39,1.37v1c-2.05,0-3.76-.34-5.81-.34A33.15,33.15,0,0,0,242,355v-1c2.05-.34,2.73-.68,2.73-2.73a21,21,0,0,0-.34-4.44l-1-13.33h0l-7.52,22.21h-3.76l-8.54-22.55h0l-.34,13.33v4.78c0,2.39.34,2.73,3.08,3.08v1c-1.71,0-3.42-.34-5.13-.34a21,21,0,0,0-4.78.34v-1c1.71,0,2.39-.68,2.73-2.39l.34-18.79" transform="translate(0.38 -85.7)"/><path id="path50" class="cls-2" d="M139.85,353.61A18.32,18.32,0,0,1,129.6,357c-10.59,0-16.74-8.2-16.74-16.74,0-8.88,6.15-17.09,17.77-17.09,4.1,0,7.18.68,8.2,1.37,0,3.42.34,6.83.34,9.91H137.8a7.49,7.49,0,0,0-7.86-6.49c-5.81,0-9.91,4.44-9.91,12,0,5.81,4.78,12,11.28,12a16.18,16.18,0,0,0,9.57-3.76l-1,5.47" transform="translate(0.38 -85.7)"/><path id="path52" class="cls-2" d="M188.72,371.72c0-1-.34-1.37-1.71-1.37v-1c1.37,0,2.73.34,4.1.34a18.05,18.05,0,0,0,4.44-.34v1a1.8,1.8,0,0,0-2.05,2.05v17.09H200c2.39,0,3.08-1,3.76-3.76h1a46.31,46.31,0,0,0-.68,6.83H186.67v-1c1,0,1.71-.34,1.71-1.37V371.72" transform="translate(0.38 -85.7)"/><path id="path54" class="cls-2" d="M210.93,371.72c0-1-.34-1.37-1.71-1.37v-1h17.43a29.39,29.39,0,0,0,.34,5.47h-1c0-2.05-.68-2.73-2.39-2.73h-7.52v6.83h4.78c1.71,0,1.71-.68,2.05-1.71h1c0,1-.34,2.39-.34,3.42a11.62,11.62,0,0,0,.34,3.42h-1c-.34-1.37-.34-1.71-2.05-1.71h-4.78v6.83h7.86c2.05,0,2.39-.68,3.08-3.42h1a48.38,48.38,0,0,0-.34,6.49H209.22v-1c1,0,1.71-.34,1.71-1.37V371.72" transform="translate(0.38 -85.7)"/><path id="path56" class="cls-2" d="M232.45,391.2c1,0,1.37-.68,1.71-1.71L241,372.07a2.58,2.58,0,0,0,.34-1.37c0-.34-.34-1-1.37-1v-1c1,0,2.05.34,3.42.34a12.82,12.82,0,0,0,3.42-.34l6.49,19.82c.68,1.37,1,2.05,2.05,2.39v1c-1.37,0-3.08-.34-4.44-.34a19.48,19.48,0,0,0-4.44.34v-1c1.37-.34,1.71-.68,1.71-1.37,0-.34-.34-1.37-.34-1.71l-1-3.42H240l-1.71,4.78a2.05,2.05,0,0,0-.34,1.37c0,.68.34,1,1.71,1v1c-1,0-2.39-.34-3.42-.34a14,14,0,0,0-3.76.34V391.2m13.33-8.88c-.68-2.39-1.37-4.44-2.05-7.86h0c-.68,2.73-2.05,5.47-2.73,7.86Z" transform="translate(0.38 -85.7)"/><path id="path58" class="cls-2" d="M273.8,384c0-1.37-.68-1.37-2.05-1.37v-1c1.37,0,2.73.34,4.44.34a22.56,22.56,0,0,0,4.78-.34v1c-1.37,0-1.71.34-1.71,2.05v7.86h-2.73l-.68-2.39a9.26,9.26,0,0,1-6.83,2.73c-6.49,0-10.59-5.47-10.59-11.62,0-7.52,5.13-12,12.64-12,2.39,0,5.13.34,6.83,1.71a41.46,41.46,0,0,0,.34,6.15h-1c-.34-3.08-3.42-4.78-6.15-4.78-4.78,0-7.18,3.76-7.18,8.2s2.39,9.23,6.49,9.23c2.39,0,3.76-1,3.76-2.73L273.8,384" transform="translate(0.38 -85.7)"/><path id="path60" class="cls-2" d="M287.47,371.72c0-1-.34-1.37-1.71-1.37v-1c1,0,2.39.34,4.1.34a22.56,22.56,0,0,0,4.78-.34v1c-1.37,0-1.71.34-1.71,1.71v13c0,4.1,1.71,4.78,4.44,4.78s4.44-.68,4.44-4.78v-13c0-1.37-.34-1.71-2.05-1.71v-1c1.37,0,2.73.34,4.78.34a16.64,16.64,0,0,0,4.1-.34v1c-1,0-1.71.34-1.71,1.37v12.64c0,6.49-3.42,8.54-9.57,8.54s-9.57-2.05-9.57-7.86l-.34-13.33" transform="translate(0.38 -85.7)"/><path id="path62" class="cls-2" d="M315.83,371.72c0-1-.34-1.37-1.71-1.37v-1h17.43a29.39,29.39,0,0,0,.34,5.47h-1c-.34-2.05-.68-2.73-2.73-2.73H321v6.83h4.78c1.71,0,1.71-.68,2.05-1.71h1c0,1-.34,2.39-.34,3.42a11.62,11.62,0,0,0,.34,3.42h-1c-.34-1.37-.34-1.71-2.05-1.71H321v6.83h7.86c1.71,0,2.39-.68,3.08-3.42h1a48.38,48.38,0,0,0-.34,6.49H314.12v-1c1,0,1.71-.34,1.71-1.37V371.72" transform="translate(0.38 -85.7)"/><path id="path64" class="cls-2" d="M338.38,401.79a4,4,0,0,0,4.1-4.1,4.15,4.15,0,0,0-4.1-4.1,4,4,0,0,0-4.1,4.1c-.34,2.05,1.71,4.1,4.1,4.1M335,397.35a3.23,3.23,0,0,1,3.42-3.42,3.42,3.42,0,0,1,3.42,3.42,3.23,3.23,0,0,1-3.42,3.42C336.33,401.11,335,399.4,335,397.35Zm2.39.34H338l1.37,2.05h.68l-1.37-2.05a1.25,1.25,0,0,0,1.37-1.37c0-1-.68-1.37-1.71-1.37h-1.71v4.78h.68v-2.05Zm0-.34V396h1c.34,0,1,0,1,.68s-.68.68-1,.68h-1Z" transform="translate(0.38 -85.7)"/></g><g id="g3112"><path id="path3114" class="cls-2" d="M210.77,297.76l2.94-2.39,6.83,8.36c1.4,1.72,3.67,3.16,6.7.61,2.62-2.55,1.44-4.72-.54-7.09l-6.07-7.47,3-2.46,6.74,8.33a8,8,0,0,1,2.27,5.59c0,2.55-1.44,4.69-3.48,6.42a8.42,8.42,0,0,1-5.2,1.88,7.62,7.62,0,0,1-6.1-3Z" transform="translate(0.38 -85.7)"/><path id="path3116" class="cls-2" d="M240.84,294.82l-2.36-11.49c-.35-1.47-.1-2.11,1.5-2.49l10.89-2.23.77,3.58L242.34,284l.89,4.12,8.46-1.76.8,3.45L244,291.63l.45,2c.41,1.63,1.12,2,2.94,1.56L254,293.8l.83,3.51-6.77,1.4C242.75,299.64,241.41,297.28,240.84,294.82Z" transform="translate(0.38 -85.7)"/><path id="path3118" class="cls-2" d="M267.49,298.53l-1.56-.35c-1.53-.41-2.2-.77-1.47-3.19l2.87-10.92c1.28-4.44,5.14-3.89,7.47-3.38l6.64,1.72-1,3.51-6.1-1.66c-1.69-.48-3-.77-3.48,1.12l-.54,2.17,8.33,2.14-.93,3.42-8.36-2.2Z" transform="translate(0.38 -85.7)"/><path id="path3120" class="cls-2" d="M283.39,304.3l-3.54-2.11,15.87-10.25c1.12-.77,2.07-.86,2.78-.22l.7.64c.67.67.83.77,0,3.58l-4.92,17.14-3.16-2.9,1-3.51-3.61-2.87,3.19-2,1.5,1.18,1.85-6.29Z" transform="translate(0.38 -85.7)"/></g></g></svg>