<svg id="Capa_1" data-name="Capa 1" xmlns="http://www.w3.org/2000/svg" viewBox="0 0 512.38 341.19"><defs><style>.cls-1{fill:#fff;}.cls-2{fill:#010101;}.cls-3{fill:#707070;}.cls-4{fill:#f08901;}.cls-5{fill:#ee8a00;}</style></defs><title>europaleague</title><rect class="cls-1" width="512.38" height="341.19"/><path class="cls-2" d="M266.94,294.19l8.56,2.25.89-3.44-8.55-2.24.47-1.81c.52-2,1.33-2.29,3.12-1.82l6.89,1.8.91-3.49-7.1-1.86c-3.29-.86-6.34-.09-7.42,4l-3.14,12a1.34,1.34,0,0,0,1,1.75l2.31.6Zm-18.31-9.13-.72-3.53-11.82,2.41a1.35,1.35,0,0,0-1.13,1.7l2.48,12.15c.84,4.14,3.85,5.08,7.17,4.4l7.2-1.46-.72-3.53-7,1.42c-1.81.36-2.61,0-3-2l-.36-1.82,8.68-1.76-.71-3.48L240,291.31l-.87-4.32Zm-28.82,24.35c-1.38-.15-2.24-.73-3.54-2.34l-6.69-8.22-3,2.41,7.31,9a7.65,7.65,0,0,0,5.31,3.07,9.47,9.47,0,0,0,9.74-7.91,7.59,7.59,0,0,0-1.92-5.82l-7.31-9-3,2.39,6.68,8.23c1.32,1.6,1.69,2.57,1.56,3.94a5.11,5.11,0,0,1-5.2,4.24m77.71-13.84a1.65,1.65,0,0,1,.6,2.07l-5.55,19.29-3.15-2.9,1.07-3.72-3.71-2.85,3.21-2.07,1.56,1.21,1.92-6.61-12.12,7.86-3.56-2,16.82-10.92a1.64,1.64,0,0,1,2.15.06Zm-74.31,27.25-2.26-2a45.41,45.41,0,0,1,68.31,0l-2.25,2a42.4,42.4,0,0,0-63.8,0m-21.06-23.77L200,297a77,77,0,0,1,110.2,0l-2.14,2.09a74,74,0,0,0-105.92,0" transform="translate(0.38 -85.7)"/><path class="cls-2" d="M265.27,396.82h7.54v1.74a7.46,7.46,0,0,1-5.59,2.41c-4.22,0-7.4-2.48-7.4-7.61s3.46-7.61,6.77-7.61a5.5,5.5,0,0,1,5.79,4.19l5.34-1.57c-1.26-4.57-4.82-7.65-11.07-7.65-6.71,0-12.43,4.82-12.43,12.64S259.9,406,266.74,406A13.45,13.45,0,0,0,278,400.62v-8.17H265.27Z" transform="translate(0.38 -85.7)"/><polygon class="cls-2" points="214.76 310.06 225.15 310.06 225.15 305.04 214.76 305.04 214.76 300.47 226.06 300.47 226.06 295.44 209.17 295.44 209.17 319.86 226.34 319.86 226.34 314.84 214.76 314.84 214.76 310.06"/><polygon class="cls-2" points="194.97 295.44 189.38 295.44 189.38 319.86 206.55 319.86 206.55 314.84 194.97 314.84 194.97 295.44"/><path class="cls-2" d="M238.45,381.15l-9.91,24.42h6.31l1.78-4.64h9.56l1.78,4.64h6.31l-9.9-24.42Zm.1,14.75,2.86-7.5,2.86,7.5Z" transform="translate(0.38 -85.7)"/><path class="cls-2" d="M295.68,395.66c0,3.28-1.68,5.3-4.74,5.3s-4.74-2-4.74-5.3V381.15h-5.58V396c0,6.8,4.71,10,10.32,10s10.33-3.24,10.33-10V381.15h-5.58v14.51Z" transform="translate(0.38 -85.7)"/><polygon class="cls-2" points="310.39 314.84 310.39 310.06 320.78 310.06 320.78 305.04 310.39 305.04 310.39 300.47 321.69 300.47 321.69 295.44 304.8 295.44 304.8 319.86 321.97 319.86 321.97 314.84 310.39 314.84"/><path class="cls-2" d="M206.34,354.08c0,5.13-2.62,8.28-7.41,8.28s-7.41-3.16-7.41-8.29V331.41H182.8v23.16c0,10.63,7.36,15.64,16.13,15.64s16.13-5.07,16.13-15.64V331.41h-8.72Z" transform="translate(0.38 -85.7)"/><polygon class="cls-2" points="160.1 268.54 176.34 268.54 176.34 260.69 160.1 260.69 160.1 253.56 177.75 253.56 177.75 245.71 151.38 245.71 151.38 283.86 178.19 283.86 178.19 276.01 160.1 276.01 160.1 268.54"/><path class="cls-2" d="M345,331.41H335.7l-15.48,38.15h9.87l2.78-7.25H347.8l2.78,7.25h9.86Zm-9.1,23.05,4.47-11.72,4.47,11.72Z" transform="translate(0.38 -85.7)"/><path class="cls-2" d="M324.08,344.06c0-8.29-6.16-12.64-13.68-12.64H295.47v38.15h8.72V356.7h6.21c7.52,0,13.68-4.36,13.68-12.64M310,348.85h-5.78v-9.59H310c3.87,0,5.4,2,5.4,4.79s-1.53,4.79-5.4,4.79" transform="translate(0.38 -85.7)"/><path class="cls-2" d="M249.4,343.62c0-7.47-6-12.21-13.79-12.21H220.46v38.15h8.72V355.83h4.69l7.63,13.73h9.81l-8.5-15.31c3.87-2.18,6.59-5.61,6.59-10.62M235.72,348h-6.54v-8.72h6.54c3.6,0,5,1.85,5,4.36s-1.36,4.36-5,4.36" transform="translate(0.38 -85.7)"/><path class="cls-2" d="M272,330.54c-11.22,0-18.46,7.57-18.46,19.93S260.74,370.4,272,370.4s18.46-7.57,18.46-19.93-7.24-19.93-18.46-19.93m0,32c-5.45,0-9.75-3.92-9.75-12.09s4.3-12.09,9.75-12.09,9.75,3.92,9.75,12.09-4.3,12.09-9.75,12.09" transform="translate(0.38 -85.7)"/><path class="cls-2" d="M287.85,120.9h0a.25.25,0,0,0,0-.13.31.31,0,0,0-.14-.25h0l-22.63-12.94h0a.34.34,0,0,0-.15,0,.3.3,0,0,0-.3.26h0c-1.17,4.93-11.71,52.89,5.26,110.11-6.09-37.53,8.58-78.67,17.93-97" transform="translate(0.38 -85.7)"/><path class="cls-2" d="M260.81,255.9h0a70,70,0,0,0,14.66-2.63h0a.31.31,0,0,0,.19-.28.24.24,0,0,0,0-.13h0C269.56,246.37,260.23,233,254,221c3.18,13,6,27.24,6.58,34.71a.3.3,0,0,0,.27.24" transform="translate(0.38 -85.7)"/><path class="cls-3" d="M280.84,251.53c-31.68-51-26.67-123.15-23.1-145.2h0a.31.31,0,0,0-.31-.31l-.09,0h0l-35,14.08a.31.31,0,0,0-.22.29.43.43,0,0,0,0,.07h0c5.65,25.89,20.17,87.18,58.76,131.08" transform="translate(0.38 -85.7)"/><path class="cls-3" d="M237.57,253.37h0a.38.38,0,0,0,0,.07.33.33,0,0,0,.2.29,70.24,70.24,0,0,0,17.08,2.35.31.31,0,0,0,.29-.29h0c-.75-12.41-3.62-38-14.15-60.58,3.42,22.94-.33,46.83-3.42,58.16" transform="translate(0.38 -85.7)"/><path class="cls-4" d="M229.37,250.9a.3.3,0,0,0,.26-.16h0c.1-.45.29-1.31.39-1.73h0a.12.12,0,0,0,0-.05.3.3,0,0,0-.22-.29h0c-22.84-9.78-38-36.18-38-62.55,0-20.6,8.82-43.07,24-54.79h0a.29.29,0,0,0,.09-.22.16.16,0,0,0,0-.06h0c-.09-.35-.28-1.16-.39-1.68a.31.31,0,0,0-.29-.22.31.31,0,0,0-.18.06,69.93,69.93,0,0,0,14.22,121.69h.09" transform="translate(0.38 -85.7)"/><path class="cls-5" d="M294.11,127.63h0a.23.23,0,0,0-.12,0,.32.32,0,0,0-.26.15L293,129.3a.27.27,0,0,0,0,.14.29.29,0,0,0,.12.23h0c16.93,11.52,26.53,34.45,26.53,56.43,0,24.47-11.89,49-32.14,59.76h0a.31.31,0,0,0-.1.23.36.36,0,0,0,0,.12h0l.86,1.49h0a.31.31,0,0,0,.24.13.26.26,0,0,0,.14,0,69.93,69.93,0,0,0,5.45-120.18" transform="translate(0.38 -85.7)"/><polygon class="cls-2" points="308.37 163.89 310.07 163.89 310.07 168.65 310.85 168.65 310.85 163.89 312.56 163.89 312.56 163.22 308.37 163.22 308.37 163.89"/><polygon class="cls-2" points="317.98 163.22 316.18 167.95 314.37 163.22 313.5 163.22 313.5 168.65 314.28 168.65 314.28 164.76 315.76 168.65 316.59 168.65 318.08 164.76 318.08 168.65 318.85 168.65 318.85 163.22 317.98 163.22"/></svg>