<?xml version="1.0" encoding="utf-8"?>
<!-- Generator: Adobe Illustrator 21.0.1, SVG Export Plug-In . SVG Version: 6.00 Build 0)  -->
<svg version="1.1" id="Capa_1" xmlns="http://www.w3.org/2000/svg" xmlns:xlink="http://www.w3.org/1999/xlink" x="0px" y="0px"
	 viewBox="0 0 512 512" style="enable-background:new 0 0 512 512;" xml:space="preserve">
<style type="text/css">
	.st0{fill:#F0F0F0;}
	.st1{fill:#0052B4;}
	.st2{fill:#D80027;}
</style>
<rect y="85.3" class="st0" width="512" height="341.3"/>
<g>
	<polygon class="st1" points="311.7,315.4 512,426.7 512,395.2 368.3,315.4 	"/>
</g>
<polygon class="st0" points="311.7,315.4 512,426.7 512,395.2 368.3,315.4 "/>
<polygon class="st2" points="138,192.9 512,426.7 512,395.2 197,194.6 "/>
<polygon class="st2" points="324.7,188.9 0,395.2 0,426.7 0,426.7 399,178.9 "/>
<g>
	<polygon class="st1" points="200.3,196.6 0,85.3 0,116.8 143.7,196.6 	"/>
</g>
<polygon class="st0" points="200.3,196.6 0,85.3 0,116.8 143.7,196.6 "/>
<polygon class="st2" points="200.3,196.6 0,85.3 0,116.8 143.7,196.6 "/>
<polygon class="st2" points="368.3,196.6 512,116.8 512,85.3 512,85.3 311.7,196.6 "/>
</svg>
